<?xml version="1.0" standalone="no"?>
<!DOCTYPE svg PUBLIC "-//W3C//DTD SVG 20010904//EN"
 "http://www.w3.org/TR/2001/REC-SVG-20010904/DTD/svg10.dtd">
<svg version="1.0" xmlns="http://www.w3.org/2000/svg"
 width="1536.000000pt" height="1536.000000pt" viewBox="0 0 1536.000000 1536.000000"
 preserveAspectRatio="xMidYMid meet">

<g transform="translate(0.000000,1536.000000) scale(0.100000,-0.100000)"
fill="#000000" stroke="none">
<path d="M1775 14352 c3 -42 226 -2763 495 -6045 268 -3283 492 -5972 496
-5977 5 -4 1123 -321 2484 -703 l2475 -695 235 68 c247 72 711 206 1415 410
231 67 542 157 690 200 149 43 491 142 760 220 270 78 627 181 795 230 168 49
440 127 605 175 165 47 305 88 310 89 10 4 1060 12065 1051 12074 -3 2 -1771
8 -3928 13 -2158 4 -4816 10 -5907 13 l-1983 5 7 -77z m9615 -3219 l0 -718
-1701 -705 -1700 -705 1558 -5 1558 -5 -2 -30 c-21 -302 -378 -4522 -383
-4528 -8 -10 -2991 -958 -2999 -953 -3 2 -703 198 -1556 436 -852 238 -1551
433 -1551 433 -2 2 -194 2307 -194 2325 0 9 153 12 730 12 686 0 730 -1 730
-17 0 -36 110 -1039 117 -1072 l8 -34 787 -202 788 -202 212 42 c117 24 508
100 868 170 360 71 656 129 657 129 3 3 183 1903 183 1936 l0 30 -2575 0
c-1487 0 -2575 4 -2575 9 0 5 -45 323 -100 707 -72 505 -97 700 -89 705 7 4
786 339 1732 745 l1720 739 -1757 3 c-1392 2 -1758 5 -1761 15 -3 6 -48 320
-100 697 -52 377 -97 702 -101 723 l-6 37 3751 0 3751 0 0 -717z"/>
</g>
</svg>
