<?xml version="1.0" encoding="UTF-8"?>
<!DOCTYPE svg PUBLIC "-//W3C//DTD SVG 1.1//EN" "http://www.w3.org/Graphics/SVG/1.1/DTD/svg11.dtd">
<svg xmlns="http://www.w3.org/2000/svg" version="1.1" width="200px" height="200px" style="shape-rendering:geometricPrecision; text-rendering:geometricPrecision; image-rendering:optimizeQuality; fill-rule:evenodd; clip-rule:evenodd" xmlns:xlink="http://www.w3.org/1999/xlink">
<g><path style="opacity:1" fill="#8991bd" d="M 91.5,27.5 C 92.2341,28.7079 92.5674,30.0413 92.5,31.5C 86.4839,32.1163 80.4839,32.7829 74.5,33.5C 74.5,32.1667 74.5,30.8333 74.5,29.5C 80.1381,28.7143 85.8047,28.0477 91.5,27.5 Z"/></g>
<g><path style="opacity:0.99" fill="#4d5a91" d="M 96.5,27.5 C 106.877,27.5647 117.211,28.2314 127.5,29.5C 127.365,31.5542 128.032,33.2209 129.5,34.5C 118.858,33.0356 108.192,31.7023 97.5,30.5C 96.8728,29.5832 96.5394,28.5832 96.5,27.5 Z"/></g>
<g><path style="opacity:1" fill="#6c7eb6" d="M 91.5,27.5 C 93.1667,27.5 94.8333,27.5 96.5,27.5C 96.5394,28.5832 96.8728,29.5832 97.5,30.5C 108.192,31.7023 118.858,33.0356 129.5,34.5C 135.355,35.0708 141.022,36.4041 146.5,38.5C 153.069,40.2447 159.402,42.578 165.5,45.5C 171.844,49.0038 177.844,53.0038 183.5,57.5C 199.651,76.3052 197.651,93.1386 177.5,108C 164.34,116.666 150.007,122.499 134.5,125.5C 125.572,127.152 116.572,128.152 107.5,128.5C 85.9691,129.757 64.9691,127.09 44.5,120.5C 32.1484,115.904 21.3151,108.904 12,99.5C 9.1686,95.8417 7.00193,91.8417 5.5,87.5C 2.97647,76.5686 5.8098,67.2353 14,59.5C 14.7726,57.6476 14.2726,56.3143 12.5,55.5C 13.9108,53.086 15.9108,51.4194 18.5,50.5C 18.8656,51.6946 19.699,52.3613 21,52.5C 24.468,50.8565 27.6346,48.8565 30.5,46.5C 35.3254,44.676 39.9921,42.676 44.5,40.5C 54.3222,37.4022 64.3222,35.0689 74.5,33.5C 80.4839,32.7829 86.4839,32.1163 92.5,31.5C 92.5674,30.0413 92.2341,28.7079 91.5,27.5 Z"/></g>
<g><path style="opacity:0.901" fill="#38416a" d="M 127.5,29.5 C 133.529,30.7057 139.529,32.039 145.5,33.5C 145.366,35.2915 145.699,36.9582 146.5,38.5C 141.022,36.4041 135.355,35.0708 129.5,34.5C 128.032,33.2209 127.365,31.5542 127.5,29.5 Z"/></g>
<g><path style="opacity:0.955" fill="#c8cade" d="M 74.5,29.5 C 74.5,30.8333 74.5,32.1667 74.5,33.5C 64.3222,35.0689 54.3222,37.4022 44.5,40.5C 42.8564,40.1898 41.8564,39.1898 41.5,37.5C 52.1344,33.4249 63.1344,30.7582 74.5,29.5 Z"/></g>
<g><path style="opacity:0.818" fill="#262d49" d="M 145.5,33.5 C 152.641,35.2085 159.308,37.8752 165.5,41.5C 165.5,42.8333 165.5,44.1667 165.5,45.5C 159.402,42.578 153.069,40.2447 146.5,38.5C 145.699,36.9582 145.366,35.2915 145.5,33.5 Z"/></g>
<g><path style="opacity:0.999" fill="#a9aece" d="M 41.5,37.5 C 41.8564,39.1898 42.8564,40.1898 44.5,40.5C 39.9921,42.676 35.3254,44.676 30.5,46.5C 29.8333,45.5 29.1667,44.5 28.5,43.5C 32.7136,41.2263 37.0469,39.2263 41.5,37.5 Z"/></g>
<g><path style="opacity:1" fill="#8d95bf" d="M 28.5,43.5 C 29.1667,44.5 29.8333,45.5 30.5,46.5C 27.6346,48.8565 24.468,50.8565 21,52.5C 19.699,52.3613 18.8656,51.6946 18.5,50.5C 21.2565,47.4208 24.5899,45.0875 28.5,43.5 Z"/></g>
<g><path style="opacity:0.853" fill="#131624" d="M 165.5,41.5 C 172.51,43.6644 178.51,47.3311 183.5,52.5C 183.5,54.1667 183.5,55.8333 183.5,57.5C 177.844,53.0038 171.844,49.0038 165.5,45.5C 165.5,44.1667 165.5,42.8333 165.5,41.5 Z"/></g>
<g><path style="opacity:0.813" fill="#05060a" d="M 183.5,52.5 C 203.494,71.1717 203.494,90.005 183.5,109C 167.402,120.759 149.402,127.926 129.5,130.5C 131.521,129.145 133.188,127.479 134.5,125.5C 150.007,122.499 164.34,116.666 177.5,108C 197.651,93.1386 199.651,76.3052 183.5,57.5C 183.5,55.8333 183.5,54.1667 183.5,52.5 Z"/></g>
<g><path style="opacity:1" fill="#c9ccd5" d="M 128.5,55.5 C 139.245,55.0712 149.912,55.5712 160.5,57C 170.386,62.1343 173.219,69.9676 169,80.5C 166.5,88.3333 161.333,93.5 153.5,96C 147.198,96.9875 140.865,97.8208 134.5,98.5C 133.402,102.423 132.735,106.423 132.5,110.5C 127.833,110.5 123.167,110.5 118.5,110.5C 121.318,92.0745 124.652,73.7412 128.5,55.5 Z"/></g>
<g><path style="opacity:1" fill="#030303" d="M 129.5,57.5 C 140.231,57.0973 150.898,57.5973 161.5,59C 166.976,61.6172 169.309,65.9505 168.5,72C 168.709,84.6018 162.709,92.2685 150.5,95C 144.833,95.3333 139.167,95.6667 133.5,96C 132.185,100.407 131.185,104.907 130.5,109.5C 126.833,109.5 123.167,109.5 119.5,109.5C 123.218,92.2413 126.552,74.908 129.5,57.5 Z"/></g>
<g><path style="opacity:1" fill="#cfd1d9" d="M 146.5,86.5 C 143.167,86.5 139.833,86.5 136.5,86.5C 136.5,85.5 136.5,84.5 136.5,83.5C 137.331,77.8438 138.165,72.1771 139,66.5C 144.173,65.1372 149.339,65.3039 154.5,67C 157.89,70.7231 158.39,74.8898 156,79.5C 154.078,83.5966 150.912,85.9299 146.5,86.5 Z"/></g>
<g><path style="opacity:1" fill="#6d7fb7" d="M 140.5,67.5 C 145.297,67.1211 149.964,67.6211 154.5,69C 156.443,81.8888 150.776,87.3888 137.5,85.5C 138.5,79.5 139.5,73.5 140.5,67.5 Z"/></g>
<g><path style="opacity:0.823" fill="#49558c" d="M 12.5,55.5 C 14.2726,56.3143 14.7726,57.6476 14,59.5C 5.8098,67.2353 2.97647,76.5686 5.5,87.5C 4.18047,86.0582 2.5138,85.3915 0.5,85.5C -0.43537,73.3911 3.56463,63.3911 12.5,55.5 Z"/></g>
<g><path style="opacity:1" fill="#6f6f6f" d="M 136.5,83.5 C 136.5,84.5 136.5,85.5 136.5,86.5C 139.833,86.5 143.167,86.5 146.5,86.5C 143.038,87.4816 139.371,87.815 135.5,87.5C 135.232,85.901 135.566,84.5676 136.5,83.5 Z"/></g>
<g><path style="opacity:1" fill="#cfd2db" d="M 87.5,41.5 C 91.8333,41.5 96.1667,41.5 100.5,41.5C 100.05,46.2016 99.383,50.8683 98.5,55.5C 105.361,54.9651 112.028,55.7984 118.5,58C 123.22,61.2985 124.72,65.7985 123,71.5C 121.561,80.1911 120.061,88.8577 118.5,97.5C 113.833,97.5 109.167,97.5 104.5,97.5C 105.927,87.5115 107.26,77.5115 108.5,67.5C 104.167,67.5 99.8333,67.5 95.5,67.5C 93.8333,77.5 92.1667,87.5 90.5,97.5C 85.8333,97.5 81.1667,97.5 76.5,97.5C 76.7878,94.1337 76.9545,90.8004 77,87.5C 68.4096,96.4462 57.9096,99.7796 45.5,97.5C 44.9933,101.86 44.3266,106.193 43.5,110.5C 38.8333,110.5 34.1667,110.5 29.5,110.5C 32.5816,92.4347 36.0816,74.4347 40,56.5C 49.4223,55.3491 58.9223,55.1824 68.5,56C 71.6179,57.0587 74.6179,58.3921 77.5,60C 79.3723,62.2932 80.8723,64.7932 82,67.5C 83.3358,58.677 85.1692,50.0103 87.5,41.5 Z"/></g>
<g><path style="opacity:1" fill="#040404" d="M 40.5,57.5 C 51.2449,57.0712 61.9115,57.5712 72.5,59C 77.7119,61.7555 80.3786,66.0888 80.5,72C 79.7458,83.8695 73.7458,91.5362 62.5,95C 56.4725,95.1697 50.4725,95.6697 44.5,96.5C 43.0886,100.713 42.4219,105.046 42.5,109.5C 38.4454,109.824 34.4454,109.491 30.5,108.5C 34.6039,91.6472 37.9372,74.6472 40.5,57.5 Z"/></g>
<g><path style="opacity:1" fill="#c4c6cd" d="M 50.5,65.5 C 67.5042,62.9675 72.1708,69.1342 64.5,84C 59.2296,86.9956 53.5629,88.1623 47.5,87.5C 47.8504,80.0665 48.8504,72.7331 50.5,65.5 Z"/></g>
<g><path style="opacity:1" fill="#6d7fb7" d="M 51.5,67.5 C 66.4071,64.558 70.4071,69.7246 63.5,83C 58.6983,85.4802 53.6983,85.9802 48.5,84.5C 49.8232,78.8941 50.8232,73.2274 51.5,67.5 Z"/></g>
<g><path style="opacity:1" fill="#040404" d="M 87.5,43.5 C 91.1667,43.5 94.8333,43.5 98.5,43.5C 98.0496,48.2016 97.383,52.8683 96.5,57.5C 102.176,57.3339 107.843,57.5006 113.5,58C 118.299,58.9663 121.299,61.7996 122.5,66.5C 120.553,76.1328 118.886,85.7994 117.5,95.5C 113.486,95.6655 109.486,95.4988 105.5,95C 107.905,85.9758 109.405,76.8091 110,67.5C 109.5,67 109,66.5 108.5,66C 103.845,65.5008 99.1785,65.3342 94.5,65.5C 92.5748,75.4589 90.9081,85.4589 89.5,95.5C 85.8333,95.5 82.1667,95.5 78.5,95.5C 81.2836,78.1316 84.2836,60.7983 87.5,43.5 Z"/></g>
<g><path style="opacity:0.825" fill="#343c63" d="M 0.5,85.5 C 2.5138,85.3915 4.18047,86.0582 5.5,87.5C 7.00193,91.8417 9.1686,95.8417 12,99.5C 21.3151,108.904 32.1484,115.904 44.5,120.5C 41.5,120.5 38.5,120.5 35.5,120.5C 18.1283,114.462 6.4616,102.795 0.5,85.5 Z"/></g>
<g><path style="opacity:0.844" fill="#29304e" d="M 35.5,120.5 C 38.5,120.5 41.5,120.5 44.5,120.5C 64.9691,127.09 85.9691,129.757 107.5,128.5C 99.3434,129.329 91.0101,129.829 82.5,130C 80.9419,130.21 79.6085,130.71 78.5,131.5C 63.385,130.472 49.0516,126.805 35.5,120.5 Z"/></g>
<g><path style="opacity:0.99" fill="#181c2e" d="M 134.5,125.5 C 133.188,127.479 131.521,129.145 129.5,130.5C 112.417,133.751 95.4166,134.085 78.5,131.5C 79.6085,130.71 80.9419,130.21 82.5,130C 91.0101,129.829 99.3434,129.329 107.5,128.5C 116.572,128.152 125.572,127.152 134.5,125.5 Z"/></g>
</svg>
